<svg viewBox="0 0 400 400" fill="none" xmlns="http://www.w3.org/2000/svg">
  <ellipse cx="200" cy="250" rx="130" ry="100" fill="#1a1a1a" stroke="#2e2e2e" stroke-width="1.5" />
  <ellipse cx="148" cy="175" rx="78" ry="70" fill="#1a1a1a" stroke="#2e2e2e" stroke-width="1.5" />
  <ellipse cx="90" cy="170" rx="42" ry="58" fill="#141414" stroke="#252525" stroke-width="1.5" />
  <ellipse cx="90" cy="170" rx="28" ry="40" fill="#0a0a0a" />
  <circle cx="168" cy="160" r="8" fill="#C8FF00" />
  <circle cx="170" cy="158" r="4" fill="#060606" />
  <circle cx="172" cy="156" r="1.5" fill="white" />
  <path d="M130 215 Q100 260 95 300 Q93 320 110 325 Q127 330 130 315 Q133 300 125 280 Q120 260 145 240" stroke="#2e2e2e" stroke-width="22" stroke-linecap="round" fill="none" />
  <path d="M130 215 Q100 260 95 300 Q93 320 110 325 Q127 330 130 315 Q133 300 125 280 Q120 260 145 240" stroke="#1a1a1a" stroke-width="18" stroke-linecap="round" fill="none" />
  <path d="M128 218 Q115 240 105 260 Q100 275 108 280" stroke="#E8D5A3" stroke-width="5" stroke-linecap="round" fill="none" opacity="0.9" />
  <rect x="100" y="330" width="40" height="55" rx="12" fill="#151515" stroke="#252525" stroke-width="1" />
  <rect x="155" y="335" width="40" height="50" rx="12" fill="#151515" stroke="#252525" stroke-width="1" />
  <rect x="210" y="330" width="40" height="55" rx="12" fill="#151515" stroke="#252525" stroke-width="1" />
  <rect x="258" y="335" width="35" height="50" rx="12" fill="#151515" stroke="#252525" stroke-width="1" />
  <path d="M328 250 Q355 240 360 255 Q365 270 355 280" stroke="#2e2e2e" stroke-width="6" stroke-linecap="round" fill="none" />
  <path d="M100 215 Q148 130 220 155 Q295 175 330 240" stroke="#C8FF00" stroke-width="1" opacity="0.15" fill="none" />
  <circle cx="240" cy="230" r="3" fill="#C8FF00" opacity="0.4" />
  <circle cx="260" cy="215" r="2" fill="#FF2D6B" opacity="0.4" />
  <circle cx="220" cy="200" r="2.5" fill="#00FFD1" opacity="0.35" />
</svg>
